<?xml version="1.0" encoding="UTF-8"?>
<svg id="Layer_2" data-name="Layer 2" xmlns="http://www.w3.org/2000/svg" viewBox="0 0 50.84 76.98">
  <defs>
    <style>
      .cls-1 {
        fill: none;
        stroke: #353535;
      }

      .cls-1, .cls-2 {
        stroke-miterlimit: 10;
      }

      .cls-2 {
        fill: #dce11f;
        stroke: #fff;
      }

      .cls-3 {
        fill: #101135;
      }

      .cls-3, .cls-4 {
        stroke-width: 0px;
      }

      .cls-4 {
        fill: #231f20;
      }
    </style>
  </defs>
  <g id="Layer_1-2" data-name="Layer 1">
    <g>
      <polygon class="cls-2" points="25.44 16.93 25.42 16.95 25.44 16.96 25.44 25.4 25.42 25.42 25.44 25.44 25.44 33.88 21.19 38.13 25.42 42.37 25.44 42.39 25.44 50.83 25.42 50.84 25.44 50.86 25.44 59.3 25.42 59.32 25.44 59.34 25.44 67.77 25.42 67.79 21.19 63.55 19.45 61.82 19.45 14.45 25.42 8.48 25.44 8.5 25.44 16.93"/>
      <polygon class="cls-3" points="42.37 25.43 38.13 29.66 37.43 30.36 33.9 33.9 31.44 36.35 29.66 38.14 25.44 42.35 25.42 42.37 21.19 38.13 25.42 33.9 25.44 33.92 25.44 33.88 29.66 29.66 31.44 27.88 33.9 25.42 25.44 16.96 25.44 8.5 42.37 25.43"/>
      <polygon class="cls-1" points="43.42 26.48 43.42 58.27 42.37 59.32 38.14 63.56 37.43 64.26 33.9 67.8 31.44 70.25 29.66 72.03 25.43 76.27 8.48 59.32 7.47 58.31 7.47 26.43 12.71 21.19 13.46 21.94 13.46 55.83 19.45 61.82 21.19 63.55 25.42 67.79 25.44 67.81 25.44 67.77 29.66 63.56 31.44 61.77 33.9 59.32 37.43 55.78 37.43 30.36 38.13 29.66 42.37 25.43 43.42 26.48"/>
      <polygon class="cls-4" points="50.84 25.42 46.6 29.66 43.42 26.48 42.37 25.43 25.44 8.5 25.44 8.46 12.71 21.19 7.47 26.43 4.24 29.66 0 25.42 1.48 23.95 4.24 21.18 7.47 17.96 8.47 16.95 21.18 4.24 25.42 0 50.84 25.42"/>
    </g>
  </g>
</svg>